<svg width="1500" height="1500" viewBox="0 0 1500 1500" fill="none" xmlns="http://www.w3.org/2000/svg">
<rect width="1500" height="1500" rx="750" fill="#111827"/>
<path d="M264.266 1117.9C261.117 1110.98 263.659 1102.83 270.024 1098.68C286.326 1088.05 300.59 1077.01 312.816 1065.57C328.089 1051.56 340.614 1036.02 350.389 1018.97C360.164 1002.21 367.343 983.481 371.925 962.769C376.507 941.752 378.799 917.993 378.799 891.494V288.323C378.799 280.039 385.514 273.323 393.799 273.323H509.052C517.337 273.323 524.052 280.039 524.052 288.323V865.451C524.052 897.129 522.678 926.065 519.929 952.26C517.179 978.15 512.597 1001.91 506.182 1023.53C500.073 1045.47 491.672 1065.57 480.98 1083.84C470.594 1102.12 457.611 1119.48 442.032 1135.93C426.758 1152.38 408.582 1168.22 387.505 1183.45C370.382 1196 350.977 1208.66 329.289 1221.42C321.705 1225.88 311.971 1222.7 308.326 1214.69L264.266 1117.9Z" fill="white"/>
<path fill-rule="evenodd" clip-rule="evenodd" d="M582.362 468.671C582.362 472.743 584.017 476.64 586.948 479.467L829.965 713.877C835.776 719.482 844.982 719.482 850.793 713.877L1074.12 498.458C1083.65 489.271 1099.53 496.021 1099.53 509.255V972.609C1099.53 980.893 1106.25 987.609 1114.53 987.609H1229.17C1237.45 987.609 1244.17 980.893 1244.17 972.609V288.323C1244.17 280.039 1237.45 273.323 1229.17 273.323H1105.77C1101.78 273.323 1097.95 274.914 1095.14 277.744L851.013 523.123C845.149 529.017 835.609 529.017 829.745 523.123L607.996 300.233C598.557 290.746 582.362 297.43 582.362 310.812V468.671Z" fill="white"/>
</svg>
