<svg width="1000" height="1000" viewBox="0 0 1000 1000" fill="none" xmlns="http://www.w3.org/2000/svg">
<path d="M14.2655 867.9C11.1172 860.983 13.6584 852.833 20.0237 848.682C36.3256 838.051 50.5896 827.013 62.8155 815.568C78.0894 801.557 90.6139 786.023 100.389 768.966C110.164 752.213 117.343 733.481 121.925 712.769C126.507 691.752 128.798 667.993 128.798 641.494V38.3234C128.798 30.0391 135.514 23.3234 143.798 23.3234H259.052C267.337 23.3234 274.052 30.0391 274.052 38.3234V615.451C274.052 647.129 272.678 676.065 269.928 702.26C267.179 728.15 262.597 751.909 256.182 773.535C250.072 795.465 241.672 815.568 230.98 833.844C220.594 852.12 207.611 869.481 192.032 885.929C176.758 902.377 158.582 918.216 137.504 933.446C120.382 945.999 100.977 958.656 79.2886 971.417C71.7044 975.879 61.9712 972.703 58.3257 964.695L14.2655 867.9Z" fill="white"/>
<path fill-rule="evenodd" clip-rule="evenodd" d="M332.362 218.671C332.362 222.743 334.017 226.64 336.948 229.467L579.965 463.877C585.776 469.482 594.982 469.482 600.793 463.877L824.121 248.458C833.646 239.271 849.535 246.021 849.535 259.255V722.609C849.535 730.893 856.251 737.609 864.535 737.609H979.169C987.453 737.609 994.169 730.893 994.169 722.609V38.3233C994.169 30.039 987.453 23.3233 979.169 23.3233H855.77C851.779 23.3233 847.952 24.9142 845.137 27.7439L601.013 273.123C595.149 279.017 585.609 279.017 579.745 273.123L357.996 50.2331C348.557 40.7463 332.362 47.4303 332.362 60.8124V218.671Z" fill="white"/>
</svg>
